<svg width="32" height="32" viewBox="0 0 32 32" fill="none" xmlns="http://www.w3.org/2000/svg">
<circle cx="16" cy="16" r="16" fill="#070707"/>
<path d="M31.952 14.751C30.5165 13.2648 29.0634 11.7957 27.593 10.344C23.932 6.734 20.16 3.182 16.171 0C17.805 0.017 19.381 0.28 20.863 0.751C24.35 3.865 27.709 7.149 31.026 10.488C31.519 11.834 31.837 13.264 31.952 14.75V14.751ZM30.564 22.634C28.068 20.037 25.513 17.514 22.827 15.163C19.121 11.917 12.134 5.353 7.09102 7.745C2.53902 9.903 2.37402 18.288 2.13102 23.983C0.730761 21.5558 -0.004311 18.8021 1.90196e-05 16C1.90196e-05 9.799 3.52802 4.421 8.68602 1.766C10.506 2.359 12.279 3.441 13.724 4.353C20.293 8.493 26.014 14.063 31.516 19.923C31.279 20.863 30.959 21.769 30.564 22.634ZM26.059 28.444C25.7265 28.1658 25.3909 27.8914 25.052 27.621C22.478 25.567 18.965 22.816 15.658 23.577C12.636 24.272 11.394 27.844 10.688 31.097C9.39174 30.6408 8.15986 30.019 7.02302 29.247C7.38902 26.005 7.91302 22.572 9.42802 19.883C11.743 15.776 15.715 16.811 19.041 18.751C22.401 20.711 25.458 23.323 28.354 26.168C27.6673 27.0014 26.8984 27.7636 26.059 28.443V28.444Z" fill="#5D5DFF"/>
</svg>
